<?xml version="1.0" encoding="utf-8"?>
<!-- Generator: Adobe Illustrator 15.1.0, SVG Export Plug-In . SVG Version: 6.00 Build 0)  -->
<!DOCTYPE svg PUBLIC "-//W3C//DTD SVG 1.1//EN" "http://www.w3.org/Graphics/SVG/1.1/DTD/svg11.dtd">
<svg version="1.1" id="Layer_1" xmlns="http://www.w3.org/2000/svg" xmlns:xlink="http://www.w3.org/1999/xlink" x="0px" y="0px"
	 width="424.8px" height="424.8px" viewBox="0 0 424.8 424.8" enable-background="new 0 0 424.8 424.8" xml:space="preserve">
<path d="M168,0C75.36,0,0,75.36,0,168s75.36,168,168,168c37.92,0,72.48-12.48,100.32-33.6L390.72,424.8l34.08-34.08L302.4,268.32
	C323.52,240.48,336,205.44,336,168C336,75.36,260.64,0,168,0z M168,288c-66.24,0-120-53.76-120-120S101.76,48,168,48
	s120,53.76,120,120S234.24,288,168,288z"/>
</svg>
